<?xml version="1.0" encoding="utf-8"?>
<!-- Generator: Adobe Illustrator 25.0.0, SVG Export Plug-In . SVG Version: 6.00 Build 0)  -->
<svg version="1.1" id="图层_1" xmlns="http://www.w3.org/2000/svg" xmlns:xlink="http://www.w3.org/1999/xlink" x="0px" y="0px"
	 viewBox="0 0 200 200" style="enable-background:new 0 0 200 200;" xml:space="preserve">
<style type="text/css">
	.st0{fill:#7ED931;}
	.st1{fill:#9BFEF1;}
	.st2{fill:#668FF9;}
	.st3{fill:#E60448;}
	.st4{fill:#EEB846;}
	.st5{fill:#FEFEFE;}
	.st6{fill:#B6E989;}
	.st7{fill:#EE5482;}
	.st8{fill:#F7844F;}
	.st9{fill:#C1EC9B;}
	.st10{fill:#BDEB95;}
	.st11{fill:#D1A7FE;}
	.st12{fill:#FA7CF2;}
	.st13{fill:#C48601;}
	.st14{fill:#F7834E;}
	.st15{fill:#3F3D56;}
	.st16{fill:#59CB08;}
	.st17{fill:#98DF67;}
	.st18{fill:#A6E37A;}
	.st19{fill:#97DE65;}
</style>
<g>
	<g>
		<path class="st0" d="M111.14,22.02c12.86,0,25.71,0,38.57,0c0.74,0.23,1.54,0.12,2.27,0.38c0.94,0.27,1.77,0.87,2.78,0.94
			c1.71,0.36,3.12,1.37,4.62,2.2c0.71,0.48,1.36,1.05,2.21,1.29c3.24,1.98,5.88,4.62,8.21,7.59c3.61,4.58,5.98,9.76,7.49,15.37
			c0.4,1.48,0.37,3,0.56,4.49c0.08,0.75-0.14,1.51,0.12,2.24c0,5.75,0,11.5,0,17.25c-0.43,0.45-0.98,0.48-1.55,0.48
			c-13.93,0.01-27.87,0-41.8,0c-0.32,0-0.64-0.05-0.95-0.07c-2.67,0.16-5.33,0.06-8,0.07c-4.26,0.02-8.52,0.01-12.78,0
			c-0.63,0-1.28,0.05-1.83-0.39c-0.4-0.46-0.41-1.02-0.41-1.58c-0.01-16.24-0.01-32.47,0-48.71C110.65,23,110.69,22.45,111.14,22.02
			z"/>
		<path class="st1" d="M50.05,22.02c8.86,0,17.73,0,26.59,0c0.62,0.61,0.48,1.4,0.48,2.15c0.01,11.32,0,22.64,0,33.96
			c0,4.62,0,9.25,0,13.87c0,0.63,0.06,1.29-0.38,1.83c-0.45,0.41-1.01,0.42-1.57,0.42c-9.56,0.01-19.13,0.01-28.69,0
			c-0.32,0-0.64-0.04-0.95-0.07c-2.47,0.16-4.93,0.06-7.4,0.07c-4.62,0.02-9.24,0.01-13.85,0c-0.59,0-1.2,0.07-1.76-0.2
			c-0.45-0.23-0.37-0.66-0.37-1.05c0-6.86-0.01-13.72,0.01-20.58c0-1.03,0.12-2.07,0.39-3.07c1.33-4.88,3.25-9.49,6.26-13.61
			c3.62-4.95,8.08-8.88,13.63-11.55C44.85,23.03,47.35,22.18,50.05,22.02z"/>
		<path class="st2" d="M133.66,73.81c3.3-0.01,6.61-0.04,9.91-0.04c11.47,0,22.94,0,34.41,0c0,17.25,0,34.5,0,51.75
			c-0.36,0.37-0.82,0.48-1.31,0.48c-8.9,0.01-17.8,0.03-26.7-0.01c-0.16,0-0.32-0.04-0.48-0.05c-4.89,0.15-9.78,0.05-14.67,0.06
			c-0.44,0-0.87-0.09-1.23-0.38c-0.4-0.46-0.41-1.02-0.41-1.58c-0.01-7.48-0.01-14.97,0-22.45c0-0.52,0.02-1.04,0.35-1.48
			c0.55-0.52,1.25-0.46,1.92-0.46c3.87-0.01,7.73,0,11.6-0.01c1.62,0,1.7-0.08,1.7-1.68c0.01-6.22,0.01-12.44,0-18.66
			c0-1.61-0.08-1.68-1.7-1.68c-3.87-0.01-7.73,0-11.6-0.01c-0.63,0-1.29,0.05-1.84-0.38C133,76.08,132.91,74.93,133.66,73.81z"/>
		<path class="st3" d="M149.47,125.55c8.19-0.01,16.38-0.03,24.57-0.04c1.31,0,2.62,0,3.94,0c0,5.91,0,11.82,0,17.73
			c-0.27,0.75-0.05,1.52-0.12,2.27c-0.23,5.69-2.31,10.75-5.13,15.6c-1.76,3.03-3.9,5.69-6.38,8.16c-2.97,2.95-6.42,5.08-10.2,6.76
			c-1.64,0.73-3.26,1.54-5.09,1.66c-0.66,0.04-1.47,0.38-1.92-0.5c-0.24-0.66-0.17-1.34-0.16-2.02c0.14-10,0.13-20.01,0.14-30.01
			c0-0.88-0.16-1.75-0.06-2.62c-0.16-5.27-0.05-10.53-0.06-15.8C149,126.29,149.11,125.87,149.47,125.55z"/>
		<path class="st4" d="M76.65,73.74c0-17.24,0-34.48-0.01-51.72c11.5,0,23,0,34.5,0c0,16.72,0,33.45,0,50.17
			c0,0.52,0.01,1.04,0.02,1.56c-0.29,0.4-0.72,0.49-1.16,0.49c-5.21-0.01-10.41,0.11-15.62-0.05c-5.52,0.15-11.05,0.05-16.58,0.05
			C77.36,74.24,76.93,74.14,76.65,73.74z"/>
		<path class="st5" d="M149.47,177.51c1.32,0.25,2.54-0.28,3.71-0.7c6.64-2.35,12.28-6.19,16.52-11.87c4-5.36,6.77-11.31,7.78-17.99
			c0.07-0.43,0.19-0.85,0.29-1.28c0.03-0.18,0.1-0.19,0.21-0.04c0,10.5-0.01,21,0.02,31.5c0,0.71-0.14,0.86-0.86,0.86
			c-51.43-0.02-102.86-0.02-154.28,0c-0.71,0-0.86-0.14-0.86-0.86c0.02-51.43,0.02-102.86,0-154.28c0-0.71,0.14-0.86,0.86-0.86
			c9.06,0.03,18.13,0.02,27.19,0.02c-1.86,0.66-3.8,1.03-5.64,1.8c-3.47,1.47-6.67,3.34-9.48,5.82c-4.23,3.73-7.61,8.16-9.75,13.39
			c-1.63,3.96-3.1,7.97-2.96,12.44c0.18,6.1,0.06,12.21,0.07,18.31c0.4,0.4,0.46,0.91,0.46,1.44c0.01,16.52,0.01,33.04,0,49.55
			c0,0.2-0.03,0.4-0.06,0.59c0.14,6.28,0.1,12.57,0.03,18.86c-0.03,2.75,0.37,5.37,1.31,7.94c0.49,1.34,0.91,2.71,1.37,4.07
			c0.23,0.95,0.54,1.87,1.14,2.67c0.09,0.15,0.16,0.32,0.22,0.49c0.43,0.85,0.89,1.67,1.53,2.38c2.34,3.46,5,6.62,8.34,9.17
			c4.92,3.75,10.24,6.38,16.65,6.36c16.92-0.06,33.84-0.02,50.77-0.02c0.6,0,1.19,0.06,1.79,0.06c0.47-0.11,0.95-0.07,1.43-0.08
			c13.66-0.01,27.32,0.01,40.98-0.01C148.66,177.25,149.11,177.18,149.47,177.51z"/>
		<path class="st5" d="M177.73,54.14c-0.38-1.81-0.68-3.63-1.18-5.42c-0.99-3.56-2.47-6.89-4.3-10.07
			c-2.4-4.15-5.63-7.58-9.37-10.54c-0.47-0.37-0.98-0.68-1.47-1.02c-0.74-0.35-1.31-1-2.14-1.2c-1.5-0.76-2.88-1.75-4.53-2.2
			c-0.96-0.31-1.84-0.86-2.88-0.95c-0.66-0.42-1.53-0.21-2.15-0.72c9.14,0,18.29,0.01,27.43-0.02c0.71,0,0.86,0.14,0.86,0.86
			c-0.03,10.42-0.02,20.84-0.02,31.26C177.91,54.27,177.82,54.28,177.73,54.14z"/>
		<path class="st6" d="M177.73,54.14c0.08-0.01,0.17-0.01,0.25-0.02c0,0.8,0,1.6,0,2.4C177.55,55.76,177.86,54.93,177.73,54.14z"/>
		<path class="st7" d="M177.98,145.64l-0.09,0.07l-0.11-0.02c0.03-0.82-0.25-1.66,0.21-2.44
			C177.98,144.04,177.98,144.84,177.98,145.64z"/>
		<path class="st8" d="M94.35,73.79c5.6-0.01,11.21-0.03,16.81-0.04c6.98,0.01,13.96,0.01,20.95,0.02c0.52,0,1.04,0.02,1.55,0.04
			c0,1.07,0,2.15,0,3.22c-0.49,0.73-1.26,0.58-1.95,0.58c-8.93,0.01-17.86,0.01-26.79,0.01c-2.95,0-5.9,0-8.85,0
			c-0.6,0-1.2,0.03-1.72-0.35C93.68,76.1,93.64,74.94,94.35,73.79z"/>
		<path class="st9" d="M151.86,22.74c1.11-0.13,2,0.39,2.88,0.95C153.7,23.62,152.85,22.98,151.86,22.74z"/>
		<path class="st10" d="M159.27,25.9c0.93,0.02,1.53,0.6,2.14,1.2C160.54,26.97,160,26.27,159.27,25.9z"/>
		<path class="st11" d="M94.35,73.79c0.01,1.09,0.03,2.18,0.04,3.27c-0.55,0.74-1.36,0.54-2.09,0.55c-2.87,0.03-2.71-0.25-2.71,2.74
			c0,14.36,0,28.72-0.01,43.07c0,0.75,0.13,1.53-0.4,2.19c-0.46,0.4-1.02,0.4-1.59,0.4c-13.52,0.01-27.05,0.01-40.57,0
			c-0.56,0-1.12,0-1.59-0.38c-0.41-0.45-0.42-1.02-0.42-1.58c-0.01-16.23-0.01-32.46,0-48.69c0-0.56,0.01-1.13,0.47-1.55
			c8.84-0.01,17.67-0.02,26.51-0.03c1.55,0,3.1-0.02,4.66-0.03C82.55,73.75,88.45,73.77,94.35,73.79z"/>
		<path class="st12" d="M45.48,73.8c0.01,17.22,0.01,34.45,0.02,51.67c-0.38,0.53-0.95,0.52-1.51,0.52
			c-6.72,0.01-13.44,0.01-20.15,0c-0.56,0-1.12-0.01-1.54-0.48c-0.01-1.79-0.04-3.58-0.03-5.38c0.01-15.46,0.02-30.91,0.02-46.37
			C30.02,73.78,37.75,73.79,45.48,73.8z"/>
		<path class="st5" d="M89.02,125.54c0.02-0.56,0.06-1.11,0.06-1.67c0-15.08,0.02-30.16-0.02-45.24c0-1.18,0.25-1.66,1.51-1.55
			c1.27,0.11,2.55-0.01,3.82-0.03c5.11,0.01,10.22,0.03,15.33,0.04c7.5,0.01,15.01,0,22.51,0c0.48,0,0.95-0.04,1.43-0.06
			c4.7,0.02,9.41,0.1,14.11,0.03c1.26-0.02,1.51,0.37,1.5,1.55c-0.06,6.66-0.06,13.32,0,19.98c0.01,1.17-0.22,1.57-1.49,1.55
			c-4.7-0.07-9.41,0-14.11,0.02c-0.55,0.53-1.25,0.45-1.92,0.45c-6.54,0.01-13.08,0-19.62,0c-1.91,0-1.92,0.01-1.92,1.94
			c0,7.06,0,14.12,0,21.18c0,0.6,0.01,1.2-0.07,1.79c0.14,4.99,0.03,9.97,0.06,14.96c0,0.52,0.02,1.04,0,1.56
			c-0.03,0.8,0.35,1.18,1.14,1.19c0.44,0,0.88,0.01,1.32,0.01c11.29,0,22.58,0,33.88,0c0.52,0,1.04-0.01,1.56,0.02
			c0.91,0.04,1.31,0.44,1.3,1.43c-0.04,6.78-0.02,13.57-0.02,20.35c0,1.31-0.3,1.61-1.6,1.68c-0.36,0.02-0.72,0.01-1.08,0.01
			c-13.13,0-26.25,0-39.38,0c-0.52,0-1.04,0.02-1.55-0.07c-2.06,0.08-4.13,0.16-6.19-0.04c-1.63-0.97-2.82-2.41-4-3.84
			c-0.19-0.23-0.28-0.57-0.52-0.79c-2.05-1.88-3.49-4.32-5.63-6.12c-0.34-0.29-0.59-0.65-0.69-1.1c-0.11-0.43-0.09-0.87-0.09-1.31
			c0-8.7,0-17.4,0-26.09C88.62,126.73,88.55,126.08,89.02,125.54z"/>
		<path class="st13" d="M149.47,125.55c-0.01,5.66-0.03,11.31-0.04,16.97c-0.42,0.47-0.98,0.48-1.54,0.48
			c-11.88,0.01-23.77,0.01-35.65,0c-1.64,0-2.04-0.42-2.05-2.07c-0.01-4.63-0.01-9.25,0-13.88c0-0.56-0.01-1.12,0.37-1.6
			c0.49-0.44,1.1-0.43,1.69-0.43c6.58-0.01,13.16-0.01,19.74,0c0.6,0,1.2,0,1.68,0.46C138.94,125.51,144.2,125.53,149.47,125.55z"/>
		<path class="st14" d="M133.67,125.49c-6.99,0.01-13.99,0.02-20.98,0.03c-0.68,0-1.35,0.02-2.03,0.03
			c-0.32,0.24-0.64,0.23-0.94-0.03c-0.02-4.11-0.05-8.21-0.06-12.32c-0.01-3.99,0.01-7.98-0.01-11.97c0-0.77,0.15-1.16,1.05-1.15
			c7.54,0.03,15.08,0.02,22.62,0.03c0.12,0,0.24,0.03,0.35,0.05C133.66,108.6,133.67,117.04,133.67,125.49z"/>
		<path class="st13" d="M109.72,125.52c0.31,0.01,0.63,0.02,0.94,0.03c0,5.22,0.03,10.44-0.02,15.67c-0.01,1.07,0.33,1.34,1.36,1.33
			c12.48-0.03,24.95-0.02,37.43-0.02c0.01,8.2,0.03,16.4,0.04,24.6c0,3.46,0,6.93,0,10.39c-0.57,0.22-1.17,0.23-1.77,0.23
			c-13.87,0-27.74,0-41.6,0c-0.16,0-0.32-0.02-0.48-0.04c-0.47-0.41-0.48-0.97-0.48-1.53c-0.01-2.77-0.01-5.54,0-8.31
			c0-0.55-0.02-1.12,0.48-1.53c0.48-0.02,0.95-0.07,1.43-0.07c13.33,0,26.65,0,39.98,0c0.28,0,0.56-0.01,0.84,0
			c0.97,0.06,1.4-0.27,1.39-1.36c-0.07-3.83-0.03-7.66-0.03-11.49c0-2.83-0.05-5.67,0.03-8.5c0.03-0.99-0.31-1.18-1.22-1.18
			c-12.29,0.03-24.58,0-36.87,0.05c-1.18,0-1.57-0.25-1.55-1.5C109.71,136.69,109.69,131.1,109.72,125.52z"/>
		<path class="st15" d="M89.05,52.81c0-6.15,0.02-12.29-0.02-18.44c-0.01-1,0.27-1.28,1.27-1.27c6.07,0.04,12.13,0.04,18.2,0
			c0.88,0,1.18,0.23,1.18,1.14c-0.03,12.41-0.02,24.83,0,37.24c0,0.85-0.29,1.09-1.11,1.08c-6.15-0.03-12.29-0.04-18.44,0.01
			c-0.96,0.01-1.1-0.37-1.1-1.2C89.06,65.18,89.04,58.99,89.05,52.81z"/>
		<path class="st16" d="M105.63,166.33c0,3.79,0,7.58,0,11.37c-0.48,0.01-0.96,0.04-1.43,0.04c-16.83,0-33.66-0.07-50.48,0.04
			c-4.74,0.03-9.01-1.27-13.04-3.53c-5.39-3.04-9.67-7.28-12.92-12.55c-0.37-0.79-0.72-1.59-1.38-2.2c-0.03-0.13-0.06-0.27-0.08-0.4
			c-0.43-0.79-0.64-1.68-1.19-2.41c-1.13-2.76-2.04-5.59-2.73-8.49c-0.06-0.23-0.09-0.47-0.09-0.71c0-7.32,0.01-14.65,0.02-21.97
			c7.73-0.01,15.47-0.03,23.2-0.04c2.83,0.01,5.66,0.04,8.49,0.04c11.68,0.01,23.36,0.02,35.03,0.03
			c0.01,9.37,0.01,18.74,0.03,28.11c0,0.52,0.05,1.03,0.07,1.55c0.18,0.36,0.38,0.7,0.69,0.96c2.05,1.72,3.53,3.97,5.34,5.91
			c1.02,1.09,1.92,2.31,2.98,3.38c0.31,0.31,0.63,0.6,1.06,0.75C101.34,166.25,103.48,166.29,105.63,166.33z"/>
		<path class="st17" d="M25.1,156.69c0.71,0.65,1,1.5,1.19,2.41C25.67,158.4,25.36,157.56,25.1,156.69z"/>
		<path class="st18" d="M26.37,159.5c0.82,0.51,1.25,1.26,1.38,2.2C27.29,160.97,26.83,160.24,26.37,159.5z"/>
		<path class="st15" d="M67.67,77.09c5.39,0,10.77,0.02,16.16-0.02c0.86-0.01,1.18,0.19,1.17,1.12c-0.04,6.94-0.04,13.89,0,20.83
			c0,0.85-0.27,1.09-1.09,1.09c-10.85-0.02-21.71-0.02-32.56,0.01c-0.85,0-0.98-0.35-0.98-1.07c0.02-6.94,0.03-13.89-0.01-20.83
			c0-0.89,0.25-1.15,1.15-1.15C56.89,77.11,62.28,77.09,67.67,77.09z"/>
		<path class="st19" d="M99.19,166.21c-1.46-0.21-2.15-1.45-2.95-2.4c-2.12-2.51-4.16-5.09-6.51-7.39c-0.34-0.34-0.7-0.66-0.62-1.22
			c2.58,2.29,4.71,4.98,6.88,7.65C96.96,164.05,98.12,165.1,99.19,166.21z"/>
	</g>
</g>
</svg>
